<?xml version="1.0" encoding="UTF-8"?>
<svg id="Layer_1" data-name="Layer 1" xmlns="http://www.w3.org/2000/svg" viewBox="0 0 344.39 314.63">
  <g>
    <path d="m190.57,204.69c0,10.66,4.84,18.09,11.63,20.67,6.78,2.58,10.34,3.23,14.21,3.23h-74.61c4.2,0,23.25-.64,25.19-21.32v-94.96H48.77v92.38c0,10.66,4.84,18.09,11.63,20.67,6.78,2.58,10.34,3.23,14.21,3.23H.32c3.55,0,6.46-.32,12.92-2.58,6.46-2.58,11.3-9.37,12.27-18.73V26.4c0-10.66-4.84-18.09-11.63-20.67C7.43,3.15,3.87,2.5,0,2.5h74.61c-3.87,0-7.43.65-14.21,3.23-6.78,2.58-11.63,10.01-11.63,20.67v82.69h118.22V26.4c0-10.66-4.85-18.09-11.63-20.67-6.46-2.58-10.01-3.23-13.89-3.23h74.94c-3.87,0-7.43.65-14.21,3.23-6.78,2.58-11.63,10.01-11.63,20.67v178.29Z"/>
    <path d="m201.46,184.99c19.06,18.41,41.67,27.78,68.15,28.1,21.64,0,40.7-7.11,51.03-15.83,10.66-8.72,18.41-18.09,20.99-24.22l2.26-4.85c-.97,2.91-1.61,6.46-9.69,19.38-3.88,6.46-8.4,12.28-13.24,17.44-10.01,10.34-29.39,21.32-50.39,23.58-37.47,4.2-71.06-8.07-91.73-29.72-20.35-21.96-32.62-50.39-32.95-80.1C143.97,43.2,197.26,4.43,254.43.24c13.89-.65,26.49,0,38.11,2.26,16.79,2.91,32.62,9.37,38.76,13.57l4.52,2.91-.32,40.38c-11.63-22.93-28.75-39.08-51.03-48.13-26.16-10.66-50.71-9.04-73,4.84-27.46,16.47-43.61,52.33-41.02,96.58,1.61,29.72,11.95,53.94,31.01,72.35Z"/>
  </g>
  <g>
    <path d="m15.16,304.65c4.04,3.9,8.82,5.88,14.43,5.95,4.58,0,8.62-1.5,10.81-3.35,2.26-1.85,3.9-3.83,4.45-5.13l.48-1.03c-.21.62-.34,1.37-2.05,4.1-.82,1.37-1.78,2.6-2.8,3.69-2.12,2.19-6.22,4.51-10.67,4.99-7.93.89-15.04-1.71-19.42-6.29-4.31-4.65-6.91-10.67-6.98-16.96-.41-16,10.87-24.21,22.98-25.1,2.94-.14,5.61,0,8.07.48,3.56.62,6.91,1.98,8.21,2.87l.96.62-.07,8.55c-2.46-4.86-6.09-8.28-10.81-10.19-5.54-2.26-10.74-1.92-15.46,1.03-5.81,3.49-9.23,11.08-8.69,20.45.34,6.29,2.53,11.42,6.57,15.32Z"/>
    <path d="m95.52,273.74c3.35,4.92,5.06,10.67,4.86,16.69-.21,7.11-2.53,12.93-6.98,17.44s-10.19,6.77-17.23,6.77c-8,0-14.57-3.49-18.12-8.48-3.56-4.99-5.33-10.8-5.27-16.62.07-7.32,2.53-13.2,7.39-17.51,4.86-4.38,10.81-6.57,17.92-6.57,7.87,0,14.16,3.28,17.44,8.28Zm-5.88.14c-3.35-4.58-7.52-6.98-12.65-7.18-5.74-.34-10.33,1.44-13.81,5.4-3.42,3.97-5.06,9.51-4.86,16.62.21,6.5,2.05,12.11,5.54,16.89,3.56,4.79,7.87,7.39,12.93,7.8,6.16.55,10.74-1.3,13.75-5.54,3.08-4.24,4.51-9.92,4.31-17.1-.07-6.63-1.85-12.31-5.2-16.89Z"/>
    <path d="m162.13,308.69c0,2.26,1.09,3.9,2.53,4.51,1.44.55,2.33.68,3.08.68h-16.14c.75,0,1.57-.14,3.01-.68,1.44-.62,2.53-2.26,2.53-4.51v-32.28c0-2.39-.27-3.62-.89-3.62-.62-.07-1.23,1.44-1.98,3.15l-16.62,38.3-20.24-39.6c-.89-1.78-1.64-2.26-2.26-1.37-.41.55-.62,1.57-.62,3.15v28.72c0,3.28,1.23,5.81,2.39,6.91,2.19,1.78,4.51,1.92,4.65,1.85h-14.36c.48,0,.96,0,2.39-.62,1.98-.82,4.24-3.08,4.24-8.28v-28.93c0-8.55-4.79-10.05-5.81-10.05l-.21-.07h10.87l17.99,34.95c2.33,4.38,4.04,4.1,5.81-.07l15.25-34.81h9.3c-.34,0-4.92.27-4.92,5.61v37.07Z"/>
    <path d="m207.06,281.33c-.62,3.28-2.05,5.75-4.17,7.46-4.31,3.35-10.33,4.24-18.12,2.8,11.97.89,17.85-3.69,17.92-12.72.07-9.57-5.27-12.72-14.77-12.45-2.12,0-3.62.07-4.38.14v42.27c0,2.26,1.09,3.83,2.53,4.38,1.57.55,2.26.68,3.08.68h-16.14c.82,0,1.57-.14,3.01-.68,1.44-.55,2.53-2.12,2.53-4.38v-38.16c0-2.12-1.03-3.49-2.46-4.04-1.37-.55-2.12-.62-2.94-.62.62,0,2.87,0,6.7-.07,3.83-.07,6.5-.14,8.07-.14,4.92-.07,8.75.34,11.49,1.16,2.8.75,4.86,2.39,6.29,4.92,1.57,3.01,1.98,6.16,1.37,9.44Z"/>
    <path d="m246.11,307.93c1.44,3.76,3.56,5.75,6.22,5.95h-15.53s5.81-.34,3.83-5.68l-5.06-14.22h-16l-4.51,12.31c-1.85,4.72-.34,7.25,4.38,7.59h-12.72c3.21-.21,5.74-2.94,7.66-8.07l15.52-41.24.21.62,16,42.74Zm-21-28.79l-5.2,14.16h15.39l-5.4-15.39c-.89-2.26-1.64-3.42-2.26-3.42-.55,0-1.37,1.57-2.53,4.65Zm27.22,34.74h.27-.27Z"/>
    <path d="m293.1,273.87c0-3.35-1.23-5.75-2.94-6.63-1.71-.89-2.74-1.16-3.83-1.23h14.09c-1.03.07-1.98.21-3.69,1.23-1.71.89-2.94,3.28-2.94,6.63v40.42h-.07l-.68-1.03-28.72-39.67c-.89-1.16-1.5-1.16-1.98-.07-.21.62-.34,1.44-.34,2.46v29.89c0,5.81,4.38,7.73,6.16,7.87l.68.14h-14.36c.34,0,.82-.07,2.39-.68,1.98-.82,4.45-2.94,4.45-7.46v-29.54c0-8.75-4.99-10.19-6.16-10.19l-.21-.07h10.19l24.76,34.13c1.03,1.44,1.85,2.05,2.46,1.92.82,0,.75-2.46.75-4.38v-23.73Z"/>
    <path d="m344.39,266.01c-3.35.75-6.09,3.15-8.28,7.11l-8.28,14.91c-1.3,2.39-1.92,4.86-1.92,7.52v13.34c0,1.3.41,2.33,1.16,3.15,1.57,1.57,3.01,1.78,4.17,1.85h-15.87c.62,0,1.23-.07,1.98-.27,1.57-.48,3.62-2.05,3.62-4.45l.07-13.27c0-1.98-.48-3.83-1.5-5.61l-11.22-19.42c-1.98-3.35-5.27-4.86-7.25-4.86l15.87.07c-3.35.21-4.51,2.8-2.6,5.88l9.57,16.75c.89,1.57,1.85,1.44,2.87-.34l7.59-13.68c2.53-4.51,2.33-8-2.6-8.69h12.58Z"/>
  </g>
</svg>