<?xml version="1.0" encoding="UTF-8"?>
<svg id="Layer_1" data-name="Layer 1" xmlns="http://www.w3.org/2000/svg" viewBox="0 0 999.57 53.57">
  <defs>
    <style>
      .cls-1 {
        fill: #231f20;
      }
    </style>
  </defs>
  <path class="cls-1" d="m44.14,46.44c0,2.81,1.15,4.68,2.81,5.33,1.73.65,2.52.79,3.38.79h-18.94c.65,0,1.3-.07,1.94-.14,1.37-.29,3.82-2.16,4.03-5.54v-20.16H12.89v19.73c0,2.81,1.15,4.68,2.81,5.33,1.66.65,2.45.79,3.31.79H.07c.65,0,1.3-.07,1.94-.14,1.37-.29,3.89-2.16,4.1-5.54V8.28c0-2.81-1.15-4.68-2.81-5.33s-2.45-.79-3.31-.79h19.01c-.86,0-1.66.14-3.31.79-1.66.65-2.81,2.52-2.81,5.33v17.64h24.48V8.28c0-2.81-1.08-4.68-2.74-5.33-1.66-.65-2.45-.79-3.31-.79h19.01c-.86,0-1.66.14-3.38.79-1.66.65-2.81,2.52-2.81,5.33v38.16Z"/>
  <path class="cls-1" d="m91.37,46.3c.65,1.66,1.58,3.02,2.66,4.1,2.23,2.02,3.31,2.09,4.54,2.16h-19.3c.36,0,.72-.07,2.16-.58.79-.29,1.3-.65,1.66-1.08.65-.94,1.66-2.59.5-4.9l-5.11-14.04h-16.63l-4.68,12.31c-1.94,4.39-.29,7.92,4.9,8.28h-14.26c3.38-.22,6.41-3.24,8.42-8.5L73.37,0l.22.65,17.79,45.65Zm-24.05-28.66l-5.11,13.61,15.99-.07-5.33-14.98c-1.01-2.66-1.87-4.03-2.52-4.03s-1.66,1.8-3.02,5.47Zm31.25,34.92h.29-.29Z"/>
  <path class="cls-1" d="m135.51,45.72c1.8,3.24,4.82,5.76,6.48,6.41l1.22.43h-10.66c-1.44-1.58-3.1-4.03-4.9-7.34l-6.55-11.3c-1.8-3.17-3.67-4.46-5.62-5.18-.94-.29-1.15-.43-2.3-.43-.58-.07-.94-.07-1.15-.07h-2.38l-.07,19.87c0,1.3.43,2.3,1.22,3.1,1.73,1.44,2.88,1.37,4.1,1.37h-18.22c.86,0,1.66-.14,3.31-.72,1.66-.65,2.81-2.38,2.81-4.9V7.78c0-2.52-1.22-4.32-2.95-4.9-1.66-.58-2.38-.72-3.17-.72,1.94,0,5.04-.07,9.15-.14,4.1-.14,7.2-.22,9.14-.14,9.5.07,14.55,1.3,17.43,5.62,1.51,2.02,2.16,4.54,2.09,7.56-.14,4.25-1.8,7.56-4.9,10.01-2.09,1.73-4.39,2.66-6.77,2.88,1.87.58,3.96,2.81,6.19,6.77l6.48,11.02Zm-7.63-30.82c.07-10.08-6.19-13.03-18.29-12.39l.07,24.91c2.66,0,4.9-.14,6.55-.36,7.56-.86,11.59-5.47,11.67-12.17Z"/>
  <path class="cls-1" d="m178.63,18.15c-.58,3.67-2.02,6.48-4.39,8.35-4.39,3.38-10.73,4.46-19.15,3.1,11.59.5,17.43-4.03,17.5-13.75.07-10.08-5.33-13.54-14.62-13.32-1.37,0-2.74.07-4.18.14v43.71c0,2.81,1.22,4.75,2.95,5.4,1.73.65,2.59.79,3.46.79h-19.59c.86,0,1.73-.14,3.46-.79s2.95-2.59,2.95-5.4V7.49c0-2.38-1.15-4.03-2.81-4.61-1.66-.58-2.45-.72-3.31-.72,1.66,0,4.54-.07,8.5-.14,4.03-.07,6.91-.14,8.57-.14,10.3-.07,15.77,1.08,18.94,6.19,1.8,3.02,2.38,6.41,1.73,10.08Z"/>
  <path class="cls-1" d="m225.43,40.76l.65-1.08-3.1,12.89h-39.75c.79,0,1.8-.22,3.46-.86,1.66-.65,2.88-2.52,2.88-5.11V7.92c0-2.59-1.22-4.39-2.95-4.97-1.66-.65-2.52-.79-3.38-.79h37.23l2.52,11.52c-.43-.79-1.37-1.94-2.74-3.46-1.37-1.51-2.81-2.88-4.46-3.96-2.02-1.37-3.96-2.23-5.83-2.66-1.87-.5-4.9-.72-9.14-.72h-4.46v23.11h4.03c6.91-.14,9.14-4.46,9.79-6.26l.22-.72v14.91c-.07-.36-.14-.79-1.08-2.45-1.08-2.09-3.67-4.68-8.93-4.68h-4.03v18.94c0,5.76,3.31,6.19,5.33,6.19h4.54c4.25,0,8.35-1.44,12.31-4.39,3.46-2.52,6.12-5.4,6.91-6.77Z"/>
  <path class="cls-1" d="m267.7,45.72c1.8,3.24,4.82,5.76,6.48,6.41l1.22.43h-10.66c-1.44-1.58-3.1-4.03-4.9-7.34l-6.55-11.3c-1.8-3.17-3.67-4.46-5.62-5.18-.94-.29-1.15-.43-2.3-.43-.58-.07-.94-.07-1.15-.07h-2.38l-.07,19.87c0,1.3.43,2.3,1.22,3.1,1.73,1.44,2.88,1.37,4.1,1.37h-18.22c.86,0,1.66-.14,3.31-.72,1.66-.65,2.81-2.38,2.81-4.9V7.78c0-2.52-1.22-4.32-2.95-4.9-1.66-.58-2.38-.72-3.17-.72,1.94,0,5.04-.07,9.15-.14,4.1-.14,7.2-.22,9.14-.14,9.5.07,14.55,1.3,17.43,5.62,1.51,2.02,2.16,4.54,2.09,7.56-.14,4.25-1.8,7.56-4.9,10.01-2.09,1.73-4.39,2.66-6.77,2.88,1.87.58,3.96,2.81,6.19,6.77l6.48,11.02Zm-7.63-30.82c.07-10.08-6.19-13.03-18.29-12.39l.07,24.91c2.66,0,4.9-.14,6.55-.36,7.56-.86,11.59-5.47,11.67-12.17Z"/>
  <path class="cls-1" d="m309.31,42.34c4.18,4.03,9.14,6.05,14.91,6.12,4.61,0,8.78-1.51,11.02-3.31,2.3-1.94,4.03-3.89,4.61-5.26l.43-1.01c-.22.65-.29,1.44-2.02,4.32-.79,1.44-1.8,2.74-2.88,3.96-2.23,2.3-6.41,4.9-11.09,5.54-8.42,1.15-16.06-1.51-20.88-6.34-4.82-4.82-7.63-11.45-7.85-18.15-.22-8.14,2.66-15.05,7.27-19.3,4.61-4.32,10.51-6.77,17.14-7.27,3.17-.22,6.34-.07,9.43.58,3.53.65,6.84,2.09,8.06,2.95l.94.58-.07,10.3c-2.74-5.4-6.55-9.29-11.45-11.59-5.69-2.59-10.94-2.45-15.91.43-3.02,1.8-5.33,4.61-6.84,8.5s-2.09,8.28-1.73,13.1c.5,6.55,2.81,11.81,6.91,15.84Z"/>
  <path class="cls-1" d="m388.29,46.44c0,2.81,1.15,4.68,2.81,5.33,1.73.65,2.52.79,3.38.79h-18.94c.65,0,1.3-.07,1.94-.14,1.37-.29,3.82-2.16,4.03-5.54v-20.16h-24.48v19.73c0,2.81,1.15,4.68,2.81,5.33,1.66.65,2.45.79,3.31.79h-18.94c.65,0,1.3-.07,1.94-.14,1.37-.29,3.89-2.16,4.1-5.54V8.28c0-2.81-1.15-4.68-2.81-5.33-1.66-.65-2.45-.79-3.31-.79h19.01c-.86,0-1.66.14-3.31.79-1.66.65-2.81,2.52-2.81,5.33v17.64h24.48V8.28c0-2.81-1.08-4.68-2.74-5.33-1.66-.65-2.45-.79-3.31-.79h19.01c-.86,0-1.66.14-3.38.79-1.66.65-2.81,2.52-2.81,5.33v38.16Z"/>
  <path class="cls-1" d="m435.52,46.3c.65,1.66,1.58,3.02,2.66,4.1,2.23,2.02,3.31,2.09,4.54,2.16h-19.3c.36,0,.72-.07,2.16-.58.79-.29,1.3-.65,1.66-1.08.65-.94,1.66-2.59.5-4.9l-5.11-14.04h-16.63l-4.68,12.31c-1.94,4.39-.29,7.92,4.9,8.28h-14.26c3.38-.22,6.41-3.24,8.42-8.5L417.52,0l.22.65,17.79,45.65Zm-24.05-28.66l-5.11,13.61,15.99-.07-5.33-14.98c-1.01-2.66-1.87-4.03-2.52-4.03s-1.66,1.8-3.02,5.47Zm31.25,34.92h.29-.29Z"/>
  <path class="cls-1" d="m479.66,45.72c1.8,3.24,4.82,5.76,6.48,6.41l1.22.43h-10.66c-1.44-1.58-3.1-4.03-4.9-7.34l-6.55-11.3c-1.8-3.17-3.67-4.46-5.62-5.18-.94-.29-1.15-.43-2.3-.43-.58-.07-.94-.07-1.15-.07h-2.38l-.07,19.87c0,1.3.43,2.3,1.22,3.1,1.73,1.44,2.88,1.37,4.1,1.37h-18.22c.86,0,1.66-.14,3.31-.72,1.66-.65,2.81-2.38,2.81-4.9V7.78c0-2.52-1.22-4.32-2.95-4.9-1.66-.58-2.38-.72-3.17-.72,1.94,0,5.04-.07,9.15-.14,4.1-.14,7.2-.22,9.14-.14,9.5.07,14.55,1.3,17.43,5.62,1.51,2.02,2.16,4.54,2.09,7.56-.14,4.25-1.8,7.56-4.9,10.01-2.09,1.73-4.39,2.66-6.77,2.88,1.87.58,3.96,2.81,6.19,6.77l6.48,11.02Zm-7.63-30.82c.07-10.08-6.19-13.03-18.29-12.39l.07,24.91c2.66,0,4.9-.14,6.55-.36,7.56-.86,11.59-5.47,11.67-12.17Z"/>
  <path class="cls-1" d="m507.09,51.92c4.39,0,8.42-1.3,12.1-3.82,3.74-2.52,6.19-5.4,7.27-8.5l-2.74,12.96h-38.59c.86,0,1.73-.14,3.46-.79,1.73-.79,2.95-2.74,2.95-5.62V8.28c0-2.81-1.15-4.68-2.81-5.33s-2.45-.79-3.31-.79h19.01c-.86,0-1.66.14-3.38.79-1.66.65-2.81,2.52-2.81,5.33v37.23c0,4.82,2.02,6.41,5.76,6.41h3.1Z"/>
  <path class="cls-1" d="m571.6,40.76l.65-1.08-3.1,12.89h-39.75c.79,0,1.8-.22,3.46-.86,1.66-.65,2.88-2.52,2.88-5.11V7.92c0-2.59-1.22-4.39-2.95-4.97-1.66-.65-2.52-.79-3.38-.79h37.23l2.52,11.52c-.43-.79-1.37-1.94-2.74-3.46-1.37-1.51-2.81-2.88-4.46-3.96-2.02-1.37-3.96-2.23-5.83-2.66-1.87-.5-4.9-.72-9.14-.72h-4.46v23.11h4.03c6.91-.14,9.15-4.46,9.79-6.26l.22-.72v14.91c-.07-.36-.14-.79-1.08-2.45-1.08-2.09-3.67-4.68-8.93-4.68h-4.03v18.94c0,5.76,3.31,6.19,5.33,6.19h4.54c4.25,0,8.35-1.44,12.31-4.39,3.46-2.52,6.12-5.4,6.91-6.77Z"/>
  <path class="cls-1" d="m611.63,15.12c-.86-2.23-2.81-4.75-5.76-7.49-2.52-2.45-5.4-4.03-8.79-4.75-3.38-.72-6.26-.36-8.79,1.08-2.81,1.73-4.1,5.26-3.53,8.78.79,4.97,4.97,8.21,12.46,9.79,13.75,2.88,18.72,8.06,17.64,17.5-.36,4.68-2.23,8.06-5.54,10.3-3.31,2.16-7.27,3.24-11.81,3.24-7.85-.07-14.11-1.94-18.87-5.47l-.14-13.68c1.51,4.18,3.89,7.85,7.13,10.94,3.31,3.1,6.91,5.11,10.87,6.05,3.89.79,7.27.65,10.15-.58,2.95-1.22,4.46-3.6,4.61-7.06.14-3.02-.94-5.69-3.31-7.99s-6.77-4.18-13.25-5.69c-5.69-1.37-9.58-3.31-11.67-5.83-2.09-2.59-3.1-5.76-2.88-9.58.14-4.03,1.8-7.27,5.04-9.65,3.24-2.45,7.34-3.67,12.31-3.6,5.11,0,10.23,1.51,12.46,2.66l1.58.86.07,10.15Z"/>
  <path class="cls-1" d="m654.83,42.34c4.18,4.03,9.14,6.05,14.91,6.12,4.61,0,8.78-1.51,11.02-3.31,2.3-1.94,4.03-3.89,4.61-5.26l.43-1.01c-.22.65-.29,1.44-2.02,4.32-.79,1.44-1.8,2.74-2.88,3.96-2.23,2.3-6.41,4.9-11.09,5.54-8.42,1.15-16.06-1.51-20.88-6.34-4.83-4.82-7.63-11.45-7.85-18.15-.22-8.14,2.66-15.05,7.27-19.3,4.61-4.32,10.51-6.77,17.14-7.27,3.17-.22,6.34-.07,9.43.58,3.53.65,6.84,2.09,8.06,2.95l.94.58-.07,10.3c-2.74-5.4-6.55-9.29-11.45-11.59-5.69-2.59-10.95-2.45-15.91.43-3.02,1.8-5.33,4.61-6.84,8.5-1.51,3.89-2.09,8.28-1.73,13.1.5,6.55,2.81,11.81,6.91,15.84Z"/>
  <path class="cls-1" d="m737.49,10.08c3.67,5.18,5.4,11.31,5.18,17.71-.22,7.34-2.59,13.46-7.27,18.29-4.68,4.82-10.8,7.27-18.36,7.2-8.42,0-15.27-3.6-19.08-8.86-3.75-5.26-5.69-11.45-5.47-17.5.07-7.7,2.66-13.9,7.7-18.43,5.04-4.61,11.38-6.91,18.94-6.91,8.28,0,14.83,3.31,18.36,8.5Zm-7.99-.07c-3.38-4.82-7.63-7.2-12.67-7.2-5.33-.14-9.5,1.94-12.6,6.19-3.1,4.25-4.46,10.01-4.1,17.28.36,6.77,2.3,12.67,5.83,17.64,3.53,4.97,7.71,7.7,12.67,8.06,5.83.5,10.08-1.44,12.82-5.98,2.81-4.54,3.96-10.73,3.53-18.43-.22-6.91-2.09-12.75-5.47-17.57Z"/>
  <path class="cls-1" d="m807.83,46.16c0,2.81,1.22,4.68,2.95,5.47,1.73.79,2.74.94,3.53.94h-19.8c.79,0,1.8-.14,3.46-.94,1.66-.79,2.88-2.66,2.88-5.47V14.47c0-2.81-.29-4.25-.86-4.32-.43,0-1.01.94-1.8,2.74l-.36.72-16.92,39.68-21.24-40.76c-1.94-3.53-3.1-2.74-3.1,1.22l-.07,28.95c0,3.67,1.44,6.55,2.88,7.78.79.65,1.66,1.08,2.59,1.44,2.02.65,2.52.65,3.02.65h-17.28c.5,0,1.15,0,2.95-.65,2.38-1.01,5.11-3.53,5.11-9.36V13.03c0-9-5.76-10.87-6.91-10.87l-.29-.07h13.54l18.29,35.07c2.66,4.9,3.96,5.18,6.12.29l15.26-35.28h12.1c-.36,0-6.05.36-6.05,6.7v37.3Z"/>
  <path class="cls-1" d="m855.56,18.15c-.58,3.67-2.02,6.48-4.39,8.35-4.39,3.38-10.73,4.46-19.15,3.1,11.59.5,17.42-4.03,17.5-13.75.07-10.08-5.33-13.54-14.62-13.32-1.37,0-2.74.07-4.18.14v43.71c0,2.81,1.22,4.75,2.95,5.4,1.73.65,2.59.79,3.46.79h-19.59c.86,0,1.73-.14,3.46-.79,1.73-.65,2.95-2.59,2.95-5.4V7.49c0-2.38-1.15-4.03-2.81-4.61-1.66-.58-2.45-.72-3.31-.72,1.66,0,4.54-.07,8.5-.14,4.03-.07,6.91-.14,8.57-.14,10.3-.07,15.77,1.08,18.94,6.19,1.8,3.02,2.38,6.41,1.73,10.08Z"/>
  <path class="cls-1" d="m896.82,46.3c.65,1.66,1.58,3.02,2.66,4.1,2.23,2.02,3.31,2.09,4.54,2.16h-19.3c.36,0,.72-.07,2.16-.58.79-.29,1.3-.65,1.66-1.08.65-.94,1.66-2.59.5-4.9l-5.11-14.04h-16.63l-4.68,12.31c-1.94,4.39-.29,7.92,4.9,8.28h-14.26c3.38-.22,6.41-3.24,8.42-8.5L878.82,0l.22.65,17.79,45.65Zm-24.05-28.66l-5.11,13.61,15.99-.07-5.33-14.98c-1.01-2.66-1.87-4.03-2.52-4.03s-1.66,1.8-3.02,5.47Zm31.25,34.92h.29-.29Z"/>
  <path class="cls-1" d="m945.06,11.09c0-3.82-1.44-6.48-3.53-7.56-2.02-1.08-3.1-1.3-4.32-1.37h16.35c-1.15.07-2.23.29-4.25,1.37-2.02,1.08-3.46,3.74-3.46,7.56v42.34h-.07l-.58-.86-30.89-41.12c-1.08-1.3-1.8-1.3-2.3.07-.22.65-.29,1.37-.29,2.3v29.45c0,6.91,5.04,8.71,7.06,9.14l.86.14h-16.63c.36,0,.94,0,2.74-.79,2.38-1.01,5.18-3.31,5.18-8.57V13.83c0-9.72-5.69-11.67-6.84-11.67l-.29-.07h12.24l25.85,34.49c.94,1.37,1.73,1.94,2.38,1.8.5-.07.79-1.44.79-4.1V11.09Z"/>
  <path class="cls-1" d="m999.57,2.16c-3.67.79-6.77,3.46-9.22,7.85l-8.5,15.34c-1.22,2.3-1.87,4.97-1.87,7.92v13.39c0,1.51.43,2.81,1.37,3.74,1.8,1.94,3.31,2.09,4.68,2.16h-18.94c.65,0,1.37-.07,2.16-.29,1.66-.5,4.03-2.45,4.03-5.33l.07-12.89c0-2.52-.58-4.75-1.73-6.62l-11.38-19.44c-2.52-4.03-6.12-5.83-8.21-5.83l18.94.07c-3.74.22-5.11,3.17-3.1,6.62l9.58,16.78c1.15,1.94,2.3,1.87,3.53-.36l7.78-13.97c2.81-4.68,1.8-8.35-3.17-9.14h13.97Z"/>
</svg>